<?xml version="1.0" standalone="no" ?>
<!DOCTYPE svg PUBLIC "-//W3C//DTD SVG 1.1//EN" "http://www.w3.org/Graphics/SVG/1.1/DTD/svg11.dtd">
<svg width="766.642px" height="766.642px" xmlns="http://www.w3.org/2000/svg" version="1.1" >
	<path d = "M382.179,620.678 L627.298,315.774 L312.091,62.3727 L66.9724,367.277 z" fill="rgb(255,255,0)" stroke-width="0.5" stroke="rgb(0,0,0)" />
	<path d = "M378.127,378.401 L338.127,385.401 L320.127,368.401 L318.127,383.401 L278.127,383.401 L260.127,363.401 L258.127,386.401 L218.127,383.401 L200.127,368.401 L198.127,383.401 L158.127,385.401 L140.127,368.401 L138.127,383.401 L118.127,383.401 L108.127,353.401 L98.1272,363.401 L78.1272,353.401 L118.127,408.401 L158.127,428.401 L198.127,444.401 L308.127,493.401 L368.127,498.401 L353.127,553.401 L343.127,553.401 L348.127,584.401 L368.127,578.401 L388.127,586.401 L408.127,588.401 L418.127,563.401 L398.127,553.401 L408.127,548.401 L438.127,478.401 L500.127,443.401 L518.127,413.401 L558.127,343.401 L558.127,328.401 L563.127,333.401 L608.127,338.401 L613.127,333.401 L578.127,328.401 L613.127,323.401 L618.127,308.401 L548.127,298.401 L533.127,261.401 L528.127,258.401 L528.127,298.401 L518.127,263.401 L498.127,263.401 L488.127,273.401 L508.127,273.401 L518.127,303.401 L508.127,313.401 L503.127,328.401 L498.127,338.401 L488.127,348.401 L470.127,338.401 L468.127,358.401 L438.127,363.401 L423.127,273.401 L328.127,228.401 L278.127,318.401 L338.127,333.401 z" fill="rgb(192,192,192)" stroke-width="0.5" stroke="rgb(0,0,0)" />
</svg>
