<?xml version="1.0" standalone="no" ?>
<!DOCTYPE svg PUBLIC "-//W3C//DTD SVG 1.1//EN" "http://www.w3.org/Graphics/SVG/1.1/DTD/svg11.dtd">
<svg width="14.9796px" height="14.9796px" xmlns="http://www.w3.org/2000/svg" version="1.1" >
	<path d = "M1.91882,10.8559 L9.11882,13.2559 L12.4188,3.35591 L5.21882,0.955913 z" fill="rgb(255,255,0)" stroke-width="0.5" stroke="rgb(0,0,0)" />
	<path d = "M8.11882,3.25591 L7.11882,4.25591 L7.11882,2.25591 L6.61882,3.75591 L6.11882,3.50591 L5.11882,4.25591 L6.11882,5.25591 L5.11882,6.25591 L7.11882,8.25591 L7.11882,5.00591 L8.11882,9.25591 L3.11882,7.25591 L7.11882,10.2559 L3.11882,9.25591 L7.11882,11.2559 L3.11882,11.2559 L7.11882,12.2559 L9.11882,13.2559 L7.61882,11.7559 L9.11882,12.2559 L7.61882,10.7559 L9.11882,11.2559 L7.61882,9.75591 L8.61882,10.2559 L9.11882,5.25591 L9.11882,8.25591 L11.1188,6.25591 L10.1188,5.25591 L11.1188,4.25591 L9.11882,2.25591 L9.11882,4.50591 z" fill="rgb(192,192,192)" stroke-width="0.5" stroke="rgb(0,0,0)" />
</svg>
