<?xml version="1.0" standalone="no" ?>
<!DOCTYPE svg PUBLIC "-//W3C//DTD SVG 1.1//EN" "http://www.w3.org/Graphics/SVG/1.1/DTD/svg11.dtd">
<svg width="41.2806px" height="41.2806px" xmlns="http://www.w3.org/2000/svg" version="1.1" >
	<path d = "M17.991,37.5066 L36.5118,12.2071 L23.1647,2.43611 L4.64384,27.7356 z" fill="rgb(255,255,0)" stroke-width="0.5" stroke="rgb(0,0,0)" />
	<path d = "M20.5472,17.0445 L20.2984,17.2519 L20.2155,17.4179 L20.0911,17.5214 L19.8837,17.3763 L19.5934,17.2726 L19.2823,17.1898 L18.992,17.1896 L18.6602,17.169 L18.2662,17.1896 L17.7478,17.3554 L17.2709,17.563 L16.9599,17.6874 L16.7733,17.8948 L16.6073,18.0606 L16.3999,18.1642 L16.2134,18.3096 L15.9438,18.4547 L15.6742,18.5583 L15.4668,18.6412 L15.2594,18.745 L15.0106,18.8694 L14.7618,18.9731 L14.5129,19.0352 L14.2018,19.1388 L13.9115,19.1803 L13.6627,19.2219 L13.3101,19.222 L12.9369,19.1596 L12.6466,19.1389 L12.3356,19.1392 L11.9623,19.2426 L11.7135,19.3256 L11.361,19.4708 L11.1121,19.5952 L10.9047,19.7194 L10.5729,19.9061 L10.3863,20.0513 L10.1582,20.2172 L10.0545,20.3831 L9.86804,20.6113 L9.72274,20.7978 L9.61914,20.943 L9.57764,21.1296 L9.53614,21.4199 L9.51544,21.6481 L9.47384,21.8969 L9.43254,22.0628 L9.43244,22.2079 L9.43234,22.3946 L9.39094,22.7056 L9.30794,22.9337 L9.24584,23.1618 L9.22504,23.3277 L9.14214,23.5143 L9.05924,23.6803 L8.93474,23.8461 L8.85184,23.9291 L8.74824,24.1157 L8.81034,24.4475 L8.91404,24.6962 L9.05914,24.6756 L9.34934,24.4267 L9.41164,24.012 L9.49464,23.7217 L9.53574,23.4521 L9.61924,23.0167 L9.70194,22.4982 L9.74364,22.2287 L9.74344,21.9591 L9.82644,21.4407 L9.99244,21.109 L10.2825,20.8184 L10.3448,20.7771 L10.3449,20.9223 L10.3033,21.1296 L10.2204,21.2955 L10.2204,21.6688 L10.1583,21.9591 L10.0751,22.2908 L9.90944,22.5605 L9.78494,22.83 L9.68134,23.1411 L9.63974,23.4314 L9.57744,23.8047 L9.57744,24.0742 L9.61904,24.4267 L9.63984,24.6756 L9.70214,25.0488 L9.72304,25.3599 L9.74344,25.7746 L9.66074,26.0236 L9.49464,26.3138 L9.34934,26.5211 L9.16274,26.7492 L8.99684,27.0395 L8.89324,27.3299 L8.85174,27.6824 L8.81024,28.1801 L8.83114,28.6155 L8.99704,28.9058 L9.03844,29.2376 L8.99684,29.5694 L8.99684,29.7975 L8.78944,30.0463 L8.62364,30.2952 L8.70664,30.7099 L8.91404,30.7931 L9.39094,30.7722 L9.86794,30.7931 L10.324,30.7513 L10.5937,30.5025 L10.3449,30.2122 L10.2617,29.9427 L10.3241,29.3413 L10.4692,28.8437 L10.5729,28.346 L10.7388,27.8483 L10.8839,27.4957 L10.9877,27.1433 L11.0914,26.8945 L11.3402,26.5626 L11.5683,26.1479 L11.5685,26.3138 L11.5476,26.6871 L11.4646,27.1018 L11.5268,27.4336 L11.5477,27.7861 L11.506,28.0764 L11.6513,28.3874 L11.8793,28.74 L12.0659,29.1547 L12.1697,29.5072 L12.1074,29.7353 L11.9622,29.9427 L11.9415,30.1709 L12.1489,30.3367 L12.5222,30.3367 L12.8332,30.3781 L13.2065,30.3366 L13.559,30.233 L13.6005,30.0671 L13.4553,29.8598 L13.3515,29.7354 L13.2894,29.5694 L13.2479,29.1962 L13.2271,28.8436 L13.248,28.5119 L13.2271,28.1179 L13.1444,27.6409 L13.2272,27.1018 L13.2272,26.7492 L13.3102,26.3967 L13.5175,26.2517 L13.7664,26.2931 L14.0567,26.2929 L14.2434,26.2932 L14.6995,26.1894 L15.0313,26.1478 L15.446,26.0027 L15.6949,25.9198 L16.0059,25.7953 L16.2755,25.6502 L16.6696,25.443 L16.939,25.2768 L17.3331,25.0488 L17.6233,24.8621 L17.893,24.7585 L17.9759,24.8622 L17.9345,25.2147 L17.9552,25.588 L18.0381,25.8369 L18.1419,26.0026 L18.3699,26.1893 L18.5151,26.4589 L18.598,26.8529 L18.681,27.2262 L18.8262,27.475 L18.9713,27.7446 L19.1372,27.9934 L19.3445,28.2631 L19.552,28.4289 L19.635,28.7398 L19.9873,29.0304 L20.1532,29.1962 L20.2154,29.5694 L20.2154,29.8597 L20.2155,30.1501 L20.1532,30.3988 L19.9877,30.6892 L20.0082,30.9588 L20.1117,31.2285 L20.1947,31.3943 L20.2984,31.6016 L20.6095,31.8089 L20.9827,31.8297 L21.356,31.7468 L21.6463,31.7884 L22.2683,31.6638 L22.2682,31.3529 L22.1025,31.1039 L21.978,30.7723 L21.7915,30.5233 L21.5841,30.2952 L21.5011,30.0464 L21.5427,29.6939 L21.6047,29.1547 L21.5632,28.6985 L21.439,28.1593 L21.4597,27.6617 L21.3974,27.0396 L21.3352,26.687 L21.2938,26.2308 L21.0656,25.6917 L20.8998,25.2147 L20.8377,24.883 L20.9619,24.3645 L21.0658,23.8462 L21.1485,23.4936 L21.1486,22.9959 L21.128,22.5813 L21.439,22.3116 L21.7915,21.8555 L22.144,21.4407 L22.5173,21.0052 L22.7452,20.5489 L22.9319,20.072 L23.1395,19.7611 L23.4089,19.4499 L23.6992,19.346 L24.1347,19.2218 L24.5909,19.0974 L24.9434,19.1183 L25.2545,19.2218 L25.5447,19.2633 L25.6901,19.1182 L25.69,18.8278 L25.5862,18.5584 L25.3996,18.3717 L25.2752,18.2473 L25.1715,18.1228 L25.1508,17.9776 L25.6277,18.0606 L25.918,18.1851 L26.1669,18.3301 L26.6023,18.4961 L26.9964,18.5996 L27.7222,18.7446 L28.5516,18.8277 L29.3188,18.7864 L29.9824,18.8279 L30.7496,18.6205 L31.4754,18.3925 L31.8072,18.1436 L32.1183,17.957 L32.3878,17.6873 L32.7196,17.3556 L33.0101,16.9825 L33.2589,16.6506 L33.404,16.2773 L33.5698,16.0492 L33.7357,15.7381 L34.0053,15.2197 L34.1298,14.7428 L34.2748,14.2866 L34.42,13.5608 L34.5027,13.1461 L34.4615,12.6069 L34.4614,12.0055 L34.3371,11.4664 L34.1711,11.1762 L33.9223,10.9479 L33.6113,11.0101 L33.3625,11.259 L33.2795,11.7359 L33.238,12.2129 L33.238,12.6482 L33.3831,12.6483 L33.5491,12.4824 L33.7151,12.2751 L33.694,12.4617 L33.6734,12.8142 L33.5905,13.229 L33.5491,13.7474 L33.3832,14.3073 L33.2588,14.6598 L33.0928,15.0538 L32.9893,15.2405 L32.8648,15.4686 L32.7612,15.6967 L32.5536,15.9662 L32.284,16.443 L31.9317,16.7957 L31.6619,17.1273 L31.2473,17.48 L30.7496,17.7288 L30.3557,17.9154 L29.8373,17.9984 L29.464,18.0607 L28.9456,18.0606 L28.2406,17.9986 L28.5724,17.9365 L29.0701,17.7912 L29.5262,17.563 L29.9409,17.2518 L30.1483,17.0859 L30.5839,16.6921 L30.9363,16.2151 L31.2059,15.9455 L31.5168,15.5929 L31.7035,15.2819 L31.8694,14.9086 L32.139,14.6183 L32.2427,14.1207 L32.3049,13.8303 L32.4085,13.4985 L32.5952,12.8142 L32.6989,12.358 L32.761,11.7982 L32.7195,11.0931 L32.7402,10.4503 L32.699,9.97329 L32.5952,9.62079 L32.5123,9.28889 L32.2428,9.08189 L31.8072,9.18529 L31.7656,9.55859 L31.7865,10.0148 L31.8899,10.6991 L31.8487,11.1968 L31.8488,11.9019 L31.7657,12.3166 L31.7036,12.7521 L31.579,13.2082 L31.3303,13.623 L31.1436,14.0377 L30.9364,14.4732 L30.6874,14.8257 L30.48,15.1159 L30.2104,15.4684 L29.8994,15.8003 L29.6298,16.0283 L29.4018,16.2772 L29.153,16.5262 L28.6968,16.7129 L28.4064,16.7749 L27.888,16.9824 L27.3489,17.0238 L26.8305,16.9616 L27.0171,16.5883 L27.3075,16.1943 L27.4732,15.5515 L27.4111,14.9293 L27.2449,14.5977 L27.1206,14.2451 L26.9135,13.7681 L26.6023,13.4571 L26.2498,13.1876 L25.9595,13.0216 L25.5449,12.897 L25.0678,12.6691 L24.508,12.4617 L24.3628,12.2544 L24.3629,11.9433 L24.5287,11.6115 L24.7155,11.3213 L24.7983,11.1345 L24.4872,10.9272 L24.1554,10.7822 L23.9066,10.7406 L23.803,11.0931 L23.6992,11.3419 L23.554,11.6737 L23.5125,12.0885 L23.4505,12.4617 L23.4711,12.8143 L23.7408,13.0836 L24.0725,13.2704 L24.3421,13.4362 L24.6531,13.5193 L25.0471,13.6645 L25.3789,13.768 L25.607,13.934 L25.8144,14.1828 L26.0217,14.3902 L26.0841,14.8256 L26.1668,15.0745 L26.0631,15.3648 L26.0217,15.6552 L25.918,15.8832 L25.6277,16.0079 L25.3582,16.0075 L25.0056,15.9661 L24.6117,15.821 L24.2798,15.6758 L23.6992,15.6345 L23.4089,15.6965 L22.849,15.6968 L22.2269,15.6759 L21.6049,15.8214 L20.9412,16.0076 L20.485,16.4224 L20.4851,16.7749 z" fill="rgb(192,192,192)" stroke-width="0.5" stroke="rgb(0,0,0)" />
</svg>
