<?xml version="1.0" standalone="no" ?>
<!DOCTYPE svg PUBLIC "-//W3C//DTD SVG 1.1//EN" "http://www.w3.org/Graphics/SVG/1.1/DTD/svg11.dtd">
<svg width="31.315px" height="31.315px" xmlns="http://www.w3.org/2000/svg" version="1.1" >
	<path d = "M24.3936,23.0116 L21.4409,4.32612 L2.7104,7.28588 L5.66304,25.9714 z" fill="rgb(255,255,0)" stroke-width="0.5" stroke="rgb(0,0,0)" />
	<path d = "M12.3366,18.341 L12.1882,18.5189 L12.0229,18.6611 L11.8413,18.7698 L11.6439,18.8473 L11.4312,18.8957 L11.2037,18.9175 L10.9621,18.9147 L10.7068,18.8898 L10.4385,18.8449 L10.1619,18.7804 L9.88186,18.6966 L9.60323,18.5937 L9.33083,18.4722 L9.0695,18.3322 L8.82406,18.1742 L8.59934,17.9984 L8.40019,17.8052 L8.22596,17.594 L8.07605,17.3645 L7.94983,17.1161 L7.84666,16.8484 L7.76594,16.5609 L7.70704,16.2531 L7.66932,15.9246 L7.65218,15.5749 L7.65382,15.2075 L7.67244,14.826 L7.70626,14.4337 L7.75347,14.0343 L7.8123,13.6312 L7.88095,13.228 L7.95762,12.8282 L8.04052,12.4351 L8.13184,12.0511 L8.23376,11.6781 L8.34845,11.3183 L8.4781,10.9737 L8.6249,10.6466 L8.79102,10.3389 L8.97864,10.0527 L9.18996,9.79032 L9.4255,9.55182 L9.68582,9.33747 L9.97147,9.1475 L10.283,8.98216 L10.6209,8.84168 L10.9858,8.72628 L11.3782,8.63621 L11.7986,8.57169 L12.2384,8.53336 L12.6888,8.52183 L13.141,8.53772 L13.5864,8.58167 L14.0161,8.65429 L14.4216,8.7562 L14.7941,8.88804 L15.1248,9.05042 L15.418,9.24015 L15.6783,9.45403 L15.9098,9.68887 L16.1171,9.94148 L16.3044,10.2087 L16.4762,10.4872 L16.6367,10.7739 L16.7903,11.0657 L16.9373,11.3614 L17.078,11.6603 L17.2125,11.9614 L17.341,12.2637 L17.4639,12.5664 L17.5813,12.8684 L17.6935,13.1688 L17.8007,13.4668 L17.9021,13.7606 L17.9968,14.0487 L18.0839,14.3293 L18.1626,14.6009 L18.232,14.8619 L18.2913,15.1105 L18.3396,15.3452 L18.3761,15.5643 L18.4021,15.7702 L18.4191,15.9651 L18.4284,16.1515 L18.4316,16.3316 L18.4298,16.5079 L18.4247,16.6826 L18.4175,16.858 L18.4097,17.0366 L18.4014,17.2176 L18.3926,17.4003 L18.3834,17.5841 L18.3739,17.7681 L18.3642,17.9518 L18.3543,18.1343 L18.3443,18.3151 L18.3343,18.4934 L18.3262,18.6693 L18.3219,18.8431 L18.3231,19.0148 L18.3318,19.1846 L18.3499,19.3528 L18.3792,19.5194 L18.4216,19.6846 L18.4789,19.8485 L18.5483,20.0059 L18.6267,20.1514 L18.7111,20.2798 L18.7987,20.3858 L18.8864,20.464 L18.9714,20.5092 L19.0505,20.5161 L19.121,20.4793 L19.1822,20.4015 L19.2338,20.2851 L19.2752,20.1329 L19.3061,19.9473 L19.3259,19.7309 L19.3342,19.4863 L19.3304,19.2161 L19.3142,18.9228 L19.2906,18.6099 L19.2647,18.2808 L19.2414,17.9389 L19.226,17.5877 L19.2234,17.2305 L19.2388,16.8708 L19.2771,16.5121 L19.3435,16.1577 L19.4394,15.8083 L19.5662,15.4646 L19.7255,15.1272 L19.9185,14.7966 L20.1469,14.4736 L20.412,14.1588 L20.7153,13.8528 L21.0583,13.5562 L21.4177,13.2696 L21.7703,12.9935 L22.093,12.7283 L22.3625,12.4747 L22.5556,12.233 L22.6492,12.0038 L22.62,11.7876 L22.4447,11.5849 L22.1523,11.3898 L21.7713,11.1962 L21.3305,10.9983 L20.8587,10.79 L20.3846,10.5654 L19.9369,10.3186 L19.5444,10.0436 L19.2358,9.73432 L18.9947,9.39831 L18.8049,9.04289 L18.65,8.67545 L18.5137,8.3034 L18.3796,7.93411 L18.2315,7.57498 L18.0529,7.23339 L17.8275,6.91673 L17.5564,6.6275 L17.2404,6.3682 L16.8804,6.1413 L16.4774,5.94931 L16.0323,5.79472 L15.5461,5.68003 L15.0197,5.60772 L14.454,5.5803 L13.8556,5.59354 L13.2311,5.64325 L12.5868,5.72522 L11.9295,5.83524 L11.2657,5.9691 L10.6018,6.1226 L9.94451,6.29153 L9.30029,6.47167 L8.67446,6.66639 L8.07231,6.87902 L7.49915,7.11293 L6.96028,7.37146 L6.46098,7.65796 L6.00657,7.97578 L5.60234,8.32828 L5.25358,8.7188 L4.9564,9.14696 L4.70691,9.61236 L4.50121,10.1146 L4.3354,10.6533 L4.20559,11.2281 L4.10788,11.8386 L4.03838,12.4844 L3.99319,13.1651 L3.97426,13.8698 L3.98353,14.5878 L4.02295,15.3083 L4.09448,16.0203 L4.20006,16.713 L4.34163,17.3757 L4.52116,17.9975 L4.74057,18.5675 L5.00206,19.0917 L5.30781,19.5758 L5.65999,20.0257 L6.0608,20.4472 L6.51241,20.8462 L7.017,21.2286 L7.57676,21.6001 L8.19386,21.9666 L8.86387,22.3228 L9.58235,22.6632 L10.3448,22.9825 L11.1469,23.2753 L11.9841,23.5362 L12.8521,23.7599 L13.7462,23.941 L14.6622,24.0741 L15.5876,24.1516 L16.5098,24.166 L17.4165,24.1098 L18.2951,23.9753 L19.1331,23.755 L19.9182,23.4414 L20.6379,23.0269 L21.2796,22.5039 L21.8425,21.8968 L22.3256,21.2298 L22.7279,20.5273 L23.0486,19.8136 L23.2867,19.113 L23.4413,18.4497 L23.5115,17.8482 L23.4962,17.3327 L23.4066,16.9 L23.2537,16.5467 L23.0486,16.2696 L22.8024,16.0655 L22.5261,15.931 L22.2308,15.8629 L21.9276,15.8579 L21.6274,15.9127 L21.3361,16.0207 L21.0592,16.1752 L20.8026,16.3693 L20.5718,16.5965 L20.3726,16.8501 L20.2106,17.1233 L20.0915,17.4094 L20.0211,17.7017 L19.9941,17.9946 L20.0055,18.2824 L20.0501,18.5593 L20.1227,18.8197 L20.2182,19.0579 L20.3315,19.2682 L20.4574,19.4449 L20.5908,19.5823 L20.7283,19.6866 L20.8666,19.7637 L21.0024,19.8198 L21.1322,19.861 L21.2527,19.8932 L21.3606,19.9227 L21.4526,19.9554 L21.5252,19.9975 L21.5781,20.0497 L21.6109,20.1128 L21.6232,20.1876 L21.6146,20.2749 L21.5848,20.3754 L21.5333,20.4899 L21.4597,20.6193 L21.3637,20.7642 L21.2482,20.9199 L21.116,21.0818 L20.9699,21.2449 L20.813,21.4047 L20.6481,21.5562 L20.478,21.6948 L20.3056,21.8158 L20.1339,21.9142 L19.9633,21.9911 L19.7942,22.047 L19.6271,22.0829 L19.4626,22.0994 L19.301,22.0973 L19.1428,22.0776 L18.9885,22.0408 L18.8386,21.9878 L18.6938,21.9188 L18.5547,21.8338 L18.4221,21.7332 L18.2966,21.6169 L18.179,21.4852 L18.07,21.3383 L17.9703,21.1762 L17.8805,20.9992 L17.8003,20.8102 L17.7291,20.6121 L17.6664,20.4079 L17.6119,20.2007 L17.565,19.9933 L17.5252,19.7887 L17.4922,19.5898 L17.4654,19.3997 L17.4441,19.2178 L17.4277,19.0438 L17.4154,18.877 L17.4065,18.7171 L17.4003,18.5636 L17.3962,18.4161 L17.3934,18.2739 L17.3912,18.1368 L17.3895,18.0035 L17.3881,17.8728 L17.3868,17.7436 L17.3856,17.6148 L17.3842,17.485 L17.3825,17.3533 L17.3803,17.2183 L17.3775,17.079 L17.3734,16.9353 L17.3672,16.7873 L17.3583,16.6349 L17.346,16.4781 L17.3296,16.317 L17.3083,16.1515 L17.2815,15.9816 L17.2485,15.8074 L17.2092,15.6245 L17.1637,15.4287 L17.112,15.2157 L17.054,14.9812 L16.9898,14.7208 L16.9193,14.4304 L16.8427,14.1057 L16.7598,13.7423 L16.6661,13.3521 L16.5572,12.9472 L16.4285,12.5394 L16.2754,12.1406 L16.0936,11.7628 L15.8784,11.4179 L15.6253,11.1177 L15.3298,10.8743 L15.0026,10.6861 L14.6541,10.5517 L14.2951,10.4696 L13.9361,10.4383 L13.5876,10.4563 L13.2604,10.5221 L12.9649,10.6343 L12.7118,10.7914 L12.5002,10.9892 L12.3291,11.2237 L12.1976,11.4906 L12.1047,11.7859 L12.0495,12.1055 L12.0311,12.4451 L12.0486,12.8007 L12.1009,13.1682 L12.18,13.5451 L12.2777,13.929 L12.3857,14.3175 L12.4958,14.7081 L12.6,15.0986 L12.69,15.4864 L12.7576,15.8691 L12.7947,16.2444 L12.8029,16.6083 L12.7838,16.9571 L12.7391,17.287 L12.6704,17.5942 L12.5793,17.8748 L12.4675,18.125 z" fill="rgb(192,192,192)" stroke-width="0.5" stroke="rgb(0,0,0)" />
</svg>
