<?xml version="1.0" standalone="no" ?>
<!DOCTYPE svg PUBLIC "-//W3C//DTD SVG 1.1//EN" "http://www.w3.org/Graphics/SVG/1.1/DTD/svg11.dtd">
<svg width="20.3618px" height="20.3618px" xmlns="http://www.w3.org/2000/svg" version="1.1" >
	<path d = "M17.9622,4.18077 L5.05869,4.06526 L4.94484,16.7832 L17.8484,16.8987 z" fill="rgb(255,255,0)" stroke-width="0.5" stroke="rgb(0,0,0)" />
	<path d = "M11.6985,4.1247 L11.3866,4.13103 L11.0817,4.14567 L10.7854,4.16773 L10.4993,4.19634 L10.2252,4.23064 L9.96463,4.26974 L9.71612,4.31364 L9.47819,4.36235 L9.24939,4.41586 L9.02823,4.47419 L8.81324,4.53731 L8.60294,4.60524 L8.39587,4.67798 L8.19055,4.75552 L7.98801,4.83864 L7.78929,4.92808 L7.59544,5.02463 L7.40748,5.12904 L7.22645,5.24208 L7.0534,5.36451 L6.88936,5.49709 L6.73537,5.6406 L6.59028,5.79448 L6.45294,5.9582 L6.32221,6.13119 L6.19694,6.31293 L6.07599,6.50285 L5.9582,6.70042 L5.84243,6.90509 L5.72754,7.11631 L5.61532,7.33556 L5.50758,7.56431 L5.40612,7.80404 L5.31274,8.05621 L5.22924,8.32232 L5.15743,8.60382 L5.09911,8.90219 L5.05608,9.21891 L5.02681,9.54978 L5.00978,9.89059 L5.00344,10.2371 L5.00628,10.5852 L5.01677,10.9306 L5.03337,11.2691 L5.05455,11.5965 L5.0788,11.9087 L5.10583,12.2041 L5.13537,12.4814 L5.16715,12.7391 L5.2009,12.9759 L5.23634,13.1903 L5.2732,13.3809 L5.31121,13.5462 L5.35009,13.6849 L5.39186,13.8027 L5.43855,13.9051 L5.49218,13.9979 L5.55476,14.0868 L5.62831,14.1775 L5.71487,14.2756 L5.81644,14.3867 L5.93504,14.5167 L6.07085,14.6621 L6.22403,14.8197 L6.39473,14.986 L6.58312,15.1578 L6.78938,15.3317 L7.01365,15.5044 L7.25611,15.6726 L7.51691,15.833 L7.79557,15.9847 L8.0916,16.127 L8.4045,16.2591 L8.73378,16.3803 L9.07896,16.4899 L9.43953,16.587 L9.81501,16.6709 L10.2049,16.7408 L10.6087,16.7942 L11.026,16.8286 L11.4562,16.8415 L11.8988,16.8303 L12.3534,16.7926 L12.8195,16.7259 L13.2966,16.6276 L13.7841,16.4952 L14.274,16.3309 L14.7581,16.1366 L15.2282,15.9144 L15.6764,15.6665 L16.0943,15.3949 L16.4738,15.1017 L16.8069,14.7889 L17.0854,14.4586 L17.3139,14.1123 L17.497,13.7513 L17.6392,13.3772 L17.7451,12.9912 L17.8194,12.5949 L17.8665,12.1896 L17.8912,11.7767 L17.898,11.3578 L17.8853,10.9332 L17.8517,10.5035 L17.7956,10.0692 L17.7154,9.63065 L17.6097,9.1885 L17.4769,8.74317 L17.3154,8.29518 L17.1239,7.84499 L16.9055,7.39885 L16.6637,6.96297 L16.4016,6.54359 L16.1228,6.14692 L15.8305,5.77919 L15.528,5.44663 L15.2187,5.15547 L14.9059,4.91192 L14.5902,4.71151 L14.2718,4.54976 L13.9515,4.4222 L13.6297,4.32434 L13.3068,4.25172 L12.9833,4.19984 L12.6598,4.16423 L12.3368,4.14043 L12.0158,4.12754 z" fill="rgb(192,192,192)" stroke-width="0.5" stroke="rgb(0,0,0)" />
</svg>
