<?xml version="1.0" standalone="no" ?>
<!DOCTYPE svg PUBLIC "-//W3C//DTD SVG 1.1//EN" "http://www.w3.org/Graphics/SVG/1.1/DTD/svg11.dtd">
<svg width="18.3691px" height="18.3691px" xmlns="http://www.w3.org/2000/svg" version="1.1" >
	<path d = "M11.9103,16.649 L17.1137,8.65856 L6.45885,1.72014 L1.25547,9.71058 z" fill="rgb(255,255,0)" stroke-width="0.5" stroke="rgb(0,0,0)" />
	<path d = "M13.6963,11.7041 L14.2334,11.4795 L14.7275,11.2354 L15.1733,10.9741 L15.5654,10.6982 L15.8984,10.4102 L16.167,10.1123 L16.3657,9.80713 L16.4893,9.49707 L16.5322,9.18457 L16.4893,8.87207 L16.3657,8.56201 L16.167,8.25684 L15.8984,7.95898 L15.5654,7.6709 L15.1733,7.39502 L14.7275,7.13379 L14.2334,6.88965 L13.6963,6.66504 L13.1216,6.4624 L12.5146,6.28418 L11.8809,6.13281 L11.2256,6.01074 L10.5542,5.92041 L9.87207,5.86426 L9.18457,5.84473 L8.49707,5.86426 L7.81494,5.92041 L7.14355,6.01074 L6.48828,6.13281 L5.85449,6.28418 L5.24756,6.4624 L4.67285,6.66504 L4.13574,6.88965 L3.6416,7.13379 L3.1958,7.39502 L2.80371,7.6709 L2.4707,7.95898 L2.20215,8.25684 L2.00342,8.56201 L1.87988,8.87207 L1.83691,9.18457 L1.87988,9.49707 L2.00342,9.80713 L2.20215,10.1123 L2.4707,10.4102 L2.80371,10.6982 L3.1958,10.9741 L3.6416,11.2354 L4.13574,11.4795 L4.67285,11.7041 L5.24756,11.9067 L5.85449,12.085 L6.48828,12.2363 L7.14355,12.3584 L7.81494,12.4487 L8.49707,12.5049 L9.18457,12.5244 L9.87207,12.5049 L10.5542,12.4487 L11.2256,12.3584 L11.8809,12.2363 L12.5146,12.085 L13.1216,11.9067 z" fill="rgb(192,192,192)" stroke-width="0.5" stroke="rgb(0,0,0)" />
</svg>
