<?xml version="1.0" standalone="no" ?>
<!DOCTYPE svg PUBLIC "-//W3C//DTD SVG 1.1//EN" "http://www.w3.org/Graphics/SVG/1.1/DTD/svg11.dtd">
<svg width="41.2809px" height="41.2809px" xmlns="http://www.w3.org/2000/svg" version="1.1" >
	<path d = "M17.9913,37.5068 L36.512,12.207 L23.1647,2.43617 L4.64402,27.736 z" fill="rgb(255,255,0)" stroke-width="0.5" stroke="rgb(0,0,0)" />
	<path d = "M20.5474,17.0447 L20.2986,17.2521 L20.2156,17.418 L20.0912,17.5216 L19.8839,17.3765 L19.5935,17.2728 L19.2825,17.1899 L18.9922,17.1899 L18.6604,17.1691 L18.2664,17.1899 L17.748,17.3557 L17.271,17.5631 L16.96,17.6875 L16.7734,17.8949 L16.6075,18.0608 L16.4001,18.1645 L16.2135,18.3096 L15.9439,18.4548 L15.6743,18.5585 L15.467,18.6414 L15.2596,18.7451 L15.0108,18.8695 L14.7619,18.9732 L14.5131,19.0354 L14.202,19.1391 L13.9117,19.1806 L13.6629,19.222 L13.3104,19.222 L12.9371,19.1598 L12.6468,19.1391 L12.3357,19.1391 L11.9625,19.2428 L11.7136,19.3257 L11.3611,19.4709 L11.1123,19.5953 L10.9049,19.7197 L10.5731,19.9063 L10.3865,20.0515 L10.1584,20.2174 L10.0547,20.3833 L9.86812,20.6114 L9.72292,20.798 L9.61922,20.9432 L9.57772,21.1298 L9.53632,21.4201 L9.51552,21.6482 L9.47412,21.8971 L9.43262,22.063 L9.43262,22.2081 L9.43262,22.3947 L9.39112,22.7058 L9.30822,22.9339 L9.24602,23.162 L9.22522,23.3279 L9.14232,23.5145 L9.05932,23.6804 L8.93492,23.8463 L8.85202,23.9293 L8.74832,24.1159 L8.81052,24.4477 L8.91422,24.6965 L9.05932,24.6758 L9.34962,24.4269 L9.41182,24.0122 L9.49482,23.7219 L9.53632,23.4523 L9.61922,23.0168 L9.70222,22.4984 L9.74362,22.2288 L9.74362,21.9593 L9.82662,21.4409 L9.99252,21.1091 L10.2828,20.8188 L10.345,20.7773 L10.345,20.9224 L10.3035,21.1298 L10.2206,21.2957 L10.2206,21.669 L10.1584,21.9593 L10.0754,22.2911 L9.90952,22.5606 L9.78512,22.8302 L9.68142,23.1413 L9.63992,23.4316 L9.57772,23.8048 L9.57772,24.0744 L9.61922,24.4269 L9.63992,24.6758 L9.70222,25.049 L9.72292,25.3601 L9.74362,25.7748 L9.66072,26.0236 L9.49482,26.314 L9.34962,26.5213 L9.16302,26.7494 L8.99712,27.0397 L8.89342,27.3301 L8.85202,27.6826 L8.81052,28.1803 L8.83122,28.6157 L8.99712,28.906 L9.03862,29.2378 L8.99712,29.5696 L8.99712,29.7977 L8.78972,30.0466 L8.62392,30.2954 L8.70682,30.7101 L8.91422,30.7931 L9.39112,30.7724 L9.86812,30.7931 L10.3243,30.7516 L10.5939,30.5028 L10.345,30.2124 L10.262,29.9429 L10.3243,29.3415 L10.4694,28.8438 L10.5731,28.3462 L10.739,27.8485 L10.8842,27.4959 L10.9879,27.1434 L11.0915,26.8946 L11.3404,26.5628 L11.5685,26.1481 L11.5685,26.314 L11.5477,26.6872 L11.4648,27.102 L11.527,27.4337 L11.5477,27.7863 L11.5063,28.0766 L11.6514,28.3876 L11.8795,28.7401 L12.0662,29.1549 L12.1698,29.5074 L12.1076,29.7355 L11.9625,29.9429 L11.9417,30.171 L12.1491,30.3369 L12.5224,30.3369 L12.8334,30.3783 L13.2067,30.3369 L13.5592,30.2332 L13.6007,30.0673 L13.4555,29.8599 L13.3518,29.7355 L13.2896,29.5696 L13.2481,29.1964 L13.2274,28.8438 L13.2481,28.512 L13.2274,28.118 L13.1445,27.6411 L13.2274,27.102 L13.2274,26.7494 L13.3104,26.3969 L13.5177,26.2518 L13.7666,26.2932 L14.0569,26.2932 L14.2435,26.2932 L14.6997,26.1895 L15.0315,26.1481 L15.4462,26.0029 L15.6951,25.92 L16.0061,25.7955 L16.2757,25.6504 L16.6697,25.443 L16.9393,25.2771 L17.3333,25.049 L17.6236,24.8624 L17.8931,24.7587 L17.9761,24.8624 L17.9346,25.2149 L17.9554,25.5882 L18.0383,25.837 L18.142,26.0029 L18.3701,26.1895 L18.5152,26.4591 L18.5982,26.8531 L18.6811,27.2264 L18.8263,27.4752 L18.9715,27.7448 L19.1373,27.9936 L19.3447,28.2632 L19.5521,28.4291 L19.635,28.7401 L19.9875,29.0305 L20.1534,29.1964 L20.2156,29.5696 L20.2156,29.8599 L20.2156,30.1502 L20.1534,30.3991 L19.9875,30.6894 L20.0083,30.959 L20.112,31.2286 L20.1949,31.3945 L20.2986,31.6018 L20.6096,31.8092 L20.9829,31.8299 L21.3562,31.747 L21.6465,31.7885 L22.2686,31.664 L22.2686,31.353 L22.1027,31.1041 L21.9783,30.7724 L21.7916,30.5235 L21.5843,30.2954 L21.5013,30.0466 L21.5428,29.694 L21.605,29.1549 L21.5635,28.6987 L21.4391,28.1595 L21.4598,27.6618 L21.3976,27.0397 L21.3354,26.6872 L21.294,26.231 L21.0658,25.6919 L20.9,25.2149 L20.8377,24.8831 L20.9622,24.3647 L21.0658,23.8463 L21.1488,23.4938 L21.1488,22.9961 L21.1281,22.5814 L21.4391,22.3118 L21.7916,21.8556 L22.1442,21.4409 L22.5174,21.0054 L22.7455,20.5492 L22.9321,20.0722 L23.1395,19.7612 L23.4091,19.4501 L23.6994,19.3465 L24.1349,19.222 L24.5911,19.0976 L24.9436,19.1184 L25.2546,19.222 L25.545,19.2635 L25.6901,19.1184 L25.6901,18.828 L25.5864,18.5585 L25.3998,18.3718 L25.2754,18.2474 L25.1717,18.123 L25.151,17.9778 L25.6279,18.0608 L25.9182,18.1852 L26.1671,18.3304 L26.6025,18.4963 L26.9965,18.5999 L27.7223,18.7451 L28.5518,18.828 L29.319,18.7866 L29.9826,18.828 L30.7498,18.6207 L31.4756,18.3926 L31.8074,18.1437 L32.1184,17.9571 L32.388,17.6875 L32.7198,17.3557 L33.0101,16.9825 L33.259,16.6507 L33.4041,16.2774 L33.57,16.0493 L33.7359,15.7383 L34.0055,15.2199 L34.1299,14.7429 L34.275,14.2867 L34.4202,13.5609 L34.5032,13.1462 L34.4617,12.6071 L34.4617,12.0057 L34.3373,11.4665 L34.1714,11.1762 L33.9225,10.9481 L33.6115,11.0103 L33.3626,11.2592 L33.2797,11.7361 L33.2382,12.2131 L33.2382,12.6485 L33.3834,12.6485 L33.5493,12.4826 L33.7152,12.2753 L33.6944,12.4619 L33.6737,12.8144 L33.5907,13.2292 L33.5493,13.7476 L33.3834,14.3075 L33.259,14.66 L33.0931,15.054 L32.9894,15.2406 L32.865,15.4687 L32.7613,15.6968 L32.5539,15.9664 L32.2843,16.4433 L31.9318,16.7959 L31.6622,17.1276 L31.2475,17.4802 L30.7498,17.729 L30.3559,17.9156 L29.8374,17.9986 L29.4642,18.0608 L28.9458,18.0608 L28.2407,17.9986 L28.5725,17.9364 L29.0702,17.7912 L29.5264,17.5631 L29.9411,17.2521 L30.1485,17.0862 L30.5839,16.6922 L30.9365,16.2152 L31.206,15.9457 L31.5171,15.5931 L31.7037,15.2821 L31.8696,14.9088 L32.1392,14.6185 L32.2429,14.1208 L32.3051,13.8305 L32.4088,13.4987 L32.5954,12.8144 L32.6991,12.3582 L32.7613,11.7983 L32.7198,11.0933 L32.7405,10.4505 L32.6991,9.97348 L32.5954,9.62098 L32.5124,9.28918 L32.2429,9.08188 L31.8074,9.18548 L31.7659,9.55878 L31.7867,10.015 L31.8903,10.6993 L31.8489,11.197 L31.8489,11.902 L31.7659,12.3167 L31.7037,12.7522 L31.5793,13.2084 L31.3305,13.6232 L31.1438,14.0379 L30.9365,14.4734 L30.6876,14.8259 L30.4803,15.1162 L30.2107,15.4687 L29.8996,15.8005 L29.6301,16.0286 L29.402,16.2774 L29.1531,16.5263 L28.6969,16.7129 L28.4066,16.7751 L27.8882,16.9825 L27.349,17.024 L26.8306,16.9617 L27.0173,16.5885 L27.3076,16.1945 L27.4735,15.5517 L27.4113,14.9296 L27.2454,14.5978 L27.1209,14.2453 L26.9136,13.7683 L26.6025,13.4573 L26.25,13.1877 L25.9597,13.0218 L25.545,12.8974 L25.068,12.6693 L24.5081,12.4619 L24.363,12.2545 L24.363,11.9435 L24.5289,11.6117 L24.7155,11.3214 L24.7984,11.1348 L24.4874,10.9274 L24.1556,10.7822 L23.9068,10.7408 L23.8031,11.0933 L23.6994,11.3421 L23.5542,11.6739 L23.5128,12.0886 L23.4506,12.4619 L23.4713,12.8144 L23.7409,13.084 L24.0727,13.2706 L24.3422,13.4365 L24.6533,13.5195 L25.0473,13.6646 L25.3791,13.7683 L25.6072,13.9342 L25.8145,14.183 L26.0219,14.3904 L26.0841,14.8259 L26.1671,15.0747 L26.0634,15.365 L26.0219,15.6553 L25.9182,15.8834 L25.6279,16.0079 L25.3583,16.0079 L25.0058,15.9664 L24.6118,15.8212 L24.28,15.6761 L23.6994,15.6346 L23.4091,15.6968 L22.8492,15.6968 L22.2271,15.6761 L21.605,15.8212 L20.9414,16.0079 L20.4852,16.4226 L20.4852,16.7751 z" fill="rgb(192,192,192)" stroke-width="0.5" stroke="rgb(0,0,0)" />
</svg>
