<?xml version="1.0" standalone="no" ?>
<!DOCTYPE svg PUBLIC "-//W3C//DTD SVG 1.1//EN" "http://www.w3.org/Graphics/SVG/1.1/DTD/svg11.dtd">
<svg width="38.5593px" height="38.5593px" xmlns="http://www.w3.org/2000/svg" version="1.1" >
	<path d = "M24.3705,21.2804 L30.8456,8.4515 L13.3296,-0.38926 L6.85454,12.4397 z" fill="rgb(255,255,0)" stroke-width="0.5" stroke="rgb(0,0,0)" />
	<path d = "M22.9906,12.6217 L22.475,12.5913 L21.929,12.4397 L21.5044,12.2274 L21.0191,12.0757 L20.5035,11.9544 L19.9272,11.8331 L19.3206,11.7117 L18.6533,11.5904 L18.1073,11.5601 L17.2581,11.5297 L16.6818,11.5297 L15.9235,11.5297 L15.5595,11.6207 L15.0439,11.3478 L14.7103,11.1354 L14.2553,10.6805 L13.7093,10.3772 L13.315,10.0435 L12.6781,9.98287 L11.8592,9.9222 L11.5255,10.0435 L10.9492,10.2862 L10.5246,10.4682 L10.1606,10.7411 L9.76631,11.0445 L9.52366,11.3478 L9.34168,11.6511 L9.15969,11.7724 L8.46208,11.9241 L7.76444,12.015 L7.30954,12.106 L7.03654,12.2274 L6.85454,12.4397 L7.40054,12.4397 L8.28014,12.7127 L8.79572,12.925 L9.25068,13.2283 L9.67532,13.6529 L10.0696,14.0169 L10.4336,14.2899 L10.7976,14.6235 L11.2222,15.1998 L11.6165,15.5334 L11.7682,15.8671 L12.0411,16.413 L12.1625,16.868 L12.4051,17.1713 L12.6781,17.4746 L13.1634,17.9296 L13.6183,18.2632 L13.9823,18.6575 L14.7406,18.8698 L15.2259,19.0518 L15.8628,19.3551 L16.4998,19.4461 L17.3491,19.5371 L18.077,19.5371 L18.6533,19.5068 L19.3509,19.4765 L19.6845,19.5068 L19.8362,19.6888 L19.8362,19.9618 L19.7452,20.2347 L19.5632,20.6594 L19.4419,21.2357 L19.2599,21.812 L19.0476,22.2366 L18.714,22.5702 L18.4713,22.8129 L18.077,22.9342 L17.713,22.9342 L17.2581,23.0252 L16.8334,23.0555 L16.3178,23.1768 L16.0448,23.4498 L15.9235,23.7228 L16.2268,23.6318 L16.5605,23.4498 L16.9851,23.4195 L17.2581,23.4498 L17.0458,23.5408 L16.7121,23.6318 L16.4391,23.7835 L16.2875,24.0261 L16.1358,24.2991 L16.0145,24.5721 L16.0448,24.8754 L16.3785,24.5114 L16.5908,24.3901 L16.8334,24.3294 L17.0458,24.1474 L17.1974,24.0564 L17.5614,23.9048 L17.804,23.7835 L18.168,23.5711 L18.441,23.3588 L18.7746,23.1162 L18.6533,23.2678 L18.5635,23.3758 L18.3178,23.5439 L17.904,23.8154 L17.6454,23.9706 L17.3997,24.074 L17.2445,24.2163 L17.0893,24.3715 L16.96,24.4749 L16.9083,24.7206 L16.9083,24.9534 L16.9471,25.1861 L17.0247,24.9534 L17.1281,24.7077 L17.2704,24.5266 L17.4255,24.5008 L17.5936,24.5008 L17.7876,24.3585 L18.0204,24.1775 L18.3049,23.9706 L18.5893,23.7249 L18.8997,23.5051 L19.0807,23.324 L19.3393,23.1301 L19.5721,22.9878 L19.8825,22.7939 L20.2316,22.574 L20.4514,22.4964 L20.5678,22.3671 L20.5937,22.1085 L20.4773,21.9404 L20.2833,22.018 L19.9083,22.2895 L19.6368,22.4706 L19.4428,22.574 L19.2876,22.6128 L19.3652,22.4576 L19.4169,22.2637 L19.5721,21.9533 L19.7531,21.643 L19.8695,21.3068 L19.8825,21.0611 L20.1411,20.6085 L20.2575,20.2723 L20.3997,19.9619 L20.5549,19.6128 L20.6713,19.4059 L20.8394,19.2507 L21.0463,19.1602 L21.3954,19.1731 L21.5377,19.3671 L21.473,19.755 L21.3695,20.0654 L21.279,20.4145 L21.2014,20.7766 L21.1109,21.0869 L20.9687,21.4102 L20.8911,21.6947 L20.7488,22.0309 L20.7101,22.2507 L20.6454,22.5611 L20.529,22.8714 L20.2057,23.3111 L19.8049,23.712 L19.5075,23.9189 L19.2488,24.0352 L18.8221,24.1516 L18.4083,24.2809 L17.9945,24.4232 L17.723,24.7077 L17.5031,25.0568 L17.71,24.8499 L18.098,24.7077 L18.3954,24.5525 L18.6281,24.5525 L18.654,24.5654 L18.4342,24.7982 L18.2531,24.9146 L18.0074,25.0956 L17.7617,25.406 L17.6324,25.5611 L17.529,25.8456 L17.6066,26.2594 L17.8135,25.8327 L18.2661,25.6258 L18.6799,25.2766 L19.1066,24.9404 L19.5463,24.6559 L19.9342,24.2809 L20.2316,23.9189 L20.3609,23.7508 L20.3738,23.8154 L20.0764,24.2421 L19.8695,24.5008 L19.5463,24.8628 L19.1712,25.3154 L18.8609,25.6516 L18.6799,25.9361 L18.5376,26.3111 L18.6023,26.9318 L18.7445,26.5051 L19.0419,26.337 L19.3911,25.9232 L19.6756,25.3801 L20.0118,24.9663 L20.3997,24.4232 L20.7747,23.9965 L21.2014,23.6602 L21.5506,23.4275 L22.0937,23.1171 L22.5592,22.9878 L23.154,22.7551 L23.6066,22.7939 L23.2704,22.5352 L22.7015,22.4189 L22.1842,22.4706 L21.7575,22.7292 L21.1885,23.1301 L20.8264,23.2594 L20.8264,22.9361 L21.0075,22.4964 L21.2014,22.0826 L21.4083,21.5654 L21.667,20.9576 L21.9127,20.1818 L22.2489,19.2895 L22.4816,19.0568 L22.8049,18.9404 L23.2058,18.8886 L22.9601,18.6817 L22.9084,18.2809 L22.9601,18.1645 L23.3222,18.1645 L23.9558,18.1128 L24.5377,18.0481 L25.2618,17.9835 L25.8567,17.8024 L26.2705,17.4404 L26.2058,17.0654 L25.9084,16.8067 L26.2575,16.6128 L26.6455,16.3412 L27.0593,15.9533 L27.111,15.5653 L26.8265,15.2291 L26.5291,15.0352 L26.7618,14.5955 L26.9429,14.2722 L27.0851,13.9101 L27.0722,13.4317 L27.2144,12.7851 L27.3179,12.2938 L27.5118,11.8024 L27.8481,11.2463 L28.3136,10.6127 L28.7273,10.0696 L29.1153,9.28078 L29.348,8.68595 L29.5679,8.24629 L29.5679,7.80663 L29.348,7.59973 L29.0765,7.36697 L28.7532,7.27646 L28.4041,7.31525 L28.042,7.67732 L27.6153,8.16871 L27.2791,8.53078 L26.917,8.93164 L26.5808,9.3713 L26.1541,9.77217 L25.8437,10.1084 L25.5722,10.4834 L25.1196,10.936 L24.6153,11.4015 L24.1368,11.8541 L23.542,12.242 L23.2834,12.4877 z" fill="rgb(192,192,192)" stroke-width="0.5" stroke="rgb(0,0,0)" />
</svg>
