<?xml version="1.0" standalone="no" ?>
<!DOCTYPE svg PUBLIC "-//W3C//DTD SVG 1.1//EN" "http://www.w3.org/Graphics/SVG/1.1/DTD/svg11.dtd">
<svg width="35.2743px" height="35.2743px" xmlns="http://www.w3.org/2000/svg" version="1.1" >
	<path d = "M17.2611,31.9326 L26.4683,6.35675 L18.9716,3.65794 L9.76436,29.2337 z" fill="rgb(255,255,0)" stroke-width="0.5" stroke="rgb(0,0,0)" />
	<path d = "M25.142,6.3974 L24.8221,6.42523 L24.7108,6.34175 L24.5299,5.88263 L24.5716,5.67395 L24.4186,5.59047 L23.4725,5.49308 L23.1386,5.4096 L22.9021,5.0757 L22.9299,4.89484 L22.7213,4.92266 L22.3456,4.38007 L22.1091,4.25486 L21.7056,4.25486 L21.4135,4.35225 L21.2465,4.49137 L21.0657,4.6305 L20.9683,4.81136 L20.8291,5.04788 L21.01,5.14527 L21.1909,5.28439 L21.3439,5.49308 L21.1074,5.4096 L20.8848,5.25657 L20.7596,5.24265 L20.5648,5.34004 L20.37,5.43743 L19.9387,5.57656 L19.6326,5.61829 L19.4379,5.66003 L19.257,5.66003 L19.1318,5.82698 L18.8396,5.93828 L18.4918,6.07741 L18.2136,6.32784 L17.9353,6.53653 L17.5597,7.23216 L17.6431,7.34346 L17.504,7.35737 L17.2397,7.8304 L17.1562,8.09474 L17.1006,8.30343 L16.9475,8.67907 L16.6832,9.12428 L16.6414,9.2634 L16.3771,9.24949 L16.0849,9.41644 L16.071,9.56948 L15.751,9.73643 L15.278,10.7521 L14.9997,11.0164 L14.9441,11.1694 L14.485,11.9764 L14.4711,12.1433 L14.3041,12.3381 L14.1928,12.8529 L14.0954,12.992 L14.0537,13.0894 L13.6363,13.5902 L13.4833,14.0772 L13.2607,14.3415 L13.0659,14.425 L13.0381,14.6476 L12.8711,15.0371 L12.7181,15.5102 L12.4537,15.7884 L12.3563,16.0806 L12.1616,16.2336 L11.9529,16.5536 L11.8416,16.7623 L11.8277,17.0545 L11.6885,17.2075 L11.4103,17.7501 L11.452,18.0701 L11.4103,18.2788 L11.4799,18.6266 L11.619,18.9605 L11.5633,19.1275 L11.6051,19.2666 L11.5912,19.4057 L11.6468,19.6144 L11.619,19.7953 L11.6051,19.9483 L11.4659,20.0457 L11.4799,20.1153 L11.6746,20.1292 L11.7025,20.2126 L11.5077,20.2126 L11.4938,20.3935 L11.4103,20.5465 L11.3268,20.7691 L11.1738,20.9917 L11.2016,21.1865 L11.2016,21.437 L11.0207,21.5204 L11.0625,21.6735 L11.3129,21.7569 L11.2433,21.8822 L11.0625,21.8682 L11.0903,21.9378 L11.2433,21.9935 L11.3546,22.1326 L11.1459,22.1326 L10.979,22.1743 L10.9651,22.3969 L11.1877,22.4526 L11.2712,22.3552 L11.3825,22.4665 L11.4659,22.6891 L11.6746,22.536 L11.8555,22.6195 L11.7859,22.8004 L11.7581,22.9673 L11.8277,23.3012 L11.8555,23.7743 L12.0503,24.0525 L11.9668,24.3447 L12.0364,24.5673 L12.2868,24.8038 L12.4537,25.1655 L12.4398,25.402 L12.3007,25.5273 L12.5233,25.8194 L12.7181,25.9446 L12.8711,26.0699 L12.9824,26.3481 L13.0798,26.5985 L13.4554,26.9742 L13.7337,26.9464 L13.9146,27.169 L14.1928,27.3081 L14.4711,27.4889 L14.9024,27.8785 L14.9719,28.1567 L15.3058,28.5046 L15.5145,29.0332 L15.598,29.3532 L15.8067,29.9932 L15.7093,30.2297 L15.7232,30.4106 L15.7371,30.6888 L15.8345,30.9949 L15.8623,31.2732 L15.9319,31.454 L16.0988,31.454 L16.1684,31.1758 L16.3493,31.2732 L16.5023,31.3427 L16.6553,31.3288 L16.864,31.4958 L16.9197,31.6349 L16.9893,31.5932 L16.9614,31.3984 L16.8501,31.1062 L16.864,30.981 L16.9336,30.828 L17.1979,30.5636 L17.1701,30.341 L17.2397,30.1463 L17.1701,29.9237 L17.2119,29.715 L17.1701,29.4089 L17.1284,29.1445 L17.1562,28.8941 L17.1562,28.5324 L17.1562,28.2402 L17.184,27.9898 L17.4623,27.6002 L17.5875,27.2663 L17.6849,26.7516 L17.8657,26.3342 L18.1162,26.042 L18.2136,25.6942 L18.4223,25.3742 L18.5475,25.2629 L18.7979,25.0125 L19.2153,24.8316 L19.3266,24.5395 L19.4379,24.3447 L19.4379,24.0247 L19.6187,23.816 L19.7996,23.7186 L20.1196,23.2456 L20.2726,23.0369 L20.4396,22.7169 L20.4674,22.3969 L20.537,22.1465 L20.8013,21.9656 L20.9543,21.6735 L21.0796,21.3256 L20.9961,21.0057 L21.1074,20.6996 L21.177,20.3935 L21.2883,20.1848 L21.4274,20.0318 L21.5387,19.5309 L21.6082,19.2388 L21.6082,18.9466 L21.5665,18.8492 L21.6917,18.7796 L21.7335,18.6683 L21.6778,18.5014 L21.803,18.251 L21.7891,17.6805 L21.8865,17.3606 L22.0117,16.9988 L22.0813,16.6371 L22.0952,16.4006 L22.1926,16.0945 L22.3456,15.691 L22.4013,15.3989 L22.443,15.2041 L22.4847,14.9815 L22.4987,14.8006 L22.6517,14.578 L22.6795,14.3832 L22.5543,14.258 L22.4569,14.0493 L22.5543,13.8546 L22.7769,13.6041 L22.8047,13.5068 L22.8604,13.2563 L23.0412,12.8946 L23.2638,12.6163 L23.4725,12.4216 L23.709,12.2268 L23.8064,11.9625 L23.6812,11.7816 L23.7786,11.5033 L23.8482,11.2946 L23.7925,11.0025 L23.9734,10.8912 L24.2656,10.6964 L24.1264,10.5155 L24.2516,10.3486 L24.4325,10.279 L24.2656,9.87556 L24.516,9.75034 L24.1821,9.65296 L24.0569,9.54166 L24.029,9.1521 L24.029,8.83211 L23.9038,8.56777 L23.9595,8.06692 L24.0708,7.64954 L24.3073,7.39911 L24.5577,7.07912 L24.7664,6.85652 L25.1142,6.67565 L25.3368,6.48088 z" fill="rgb(192,192,192)" stroke-width="0.5" stroke="rgb(0,0,0)" />
</svg>
