<?xml version="1.0" standalone="no" ?>
<!DOCTYPE svg PUBLIC "-//W3C//DTD SVG 1.1//EN" "http://www.w3.org/Graphics/SVG/1.1/DTD/svg11.dtd">
<svg width="26.4263px" height="26.4263px" xmlns="http://www.w3.org/2000/svg" version="1.1" >
	<path d = "M13.0339,13.4004 L13.0339,13.4004 L13.0339,13.4004 L13.0339,13.4004 z" fill="rgb(255,255,0)" stroke-width="0.5" stroke="rgb(0,0,0)" />
	<path d = "M13.0339,8.40043 L10.0226,9.93889 L7.20837,8.13777 L6.08266,10.8395 L7.43351,13.3723 L5.01325,16.2428 L4.0564,18.4942 L6.13895,18.832 L9.45978,16.6368 L12.0489,17.8188 L14.9757,18.832 L16.1577,16.862 L19.3097,14.7794 L20.6605,15.5674 L22.4617,14.5543 L20.2102,12.134 L17.0583,13.0909 L14.4692,14.8357 L11.0358,15.5674 L9.57235,14.6106 L10.3603,12.8657 L12.5555,13.4849 L15.5386,12.1903 L19.366,10.3892 L20.6042,6.95578 L18.578,5.3798 L13.3435,5.94265 z" fill="rgb(192,192,192)" stroke-width="0.5" stroke="rgb(0,0,0)" />
</svg>
